<?xml version="1.0" encoding="UTF-8" standalone="no"?>
<!-- Created with Inkscape (http://www.inkscape.org/) -->

<svg
   xmlns:dc="http://purl.org/dc/elements/1.1/"
   xmlns:cc="http://creativecommons.org/ns#"
   xmlns:rdf="http://www.w3.org/1999/02/22-rdf-syntax-ns#"
   xmlns:svg="http://www.w3.org/2000/svg"
   xmlns="http://www.w3.org/2000/svg"
   xmlns:sodipodi="http://sodipodi.sourceforge.net/DTD/sodipodi-0.dtd"
   xmlns:inkscape="http://www.inkscape.org/namespaces/inkscape"
   width="170.186mm"
   height="53.820999mm"
   viewBox="0 0 603.02128 190.70433"
   id="svg2"
   version="1.1"
   inkscape:version="0.91 r13725"
   sodipodi:docname="medialab.svg">
  <defs
     id="defs4" />
  <sodipodi:namedview
     id="base"
     pagecolor="#ffffff"
     bordercolor="#666666"
     borderopacity="1.0"
     inkscape:pageopacity="0.0"
     inkscape:pageshadow="2"
     inkscape:zoom="0.7"
     inkscape:cx="149.66245"
     inkscape:cy="444.6209"
     inkscape:document-units="px"
     inkscape:current-layer="layer1"
     showgrid="false"
     inkscape:window-width="1314"
     inkscape:window-height="744"
     inkscape:window-x="52"
     inkscape:window-y="24"
     inkscape:window-maximized="1" />
  <metadata
     id="metadata7">
    <rdf:RDF>
      <cc:Work
         rdf:about="">
        <dc:format>image/svg+xml</dc:format>
        <dc:type
           rdf:resource="http://purl.org/dc/dcmitype/StillImage" />
        <dc:title></dc:title>
      </cc:Work>
    </rdf:RDF>
  </metadata>
  <g
     inkscape:label="Layer 1"
     inkscape:groupmode="layer"
     id="layer1"
     transform="translate(0,-861.65787)">
    <path
       style="fill:#ffffff;stroke-width:0.13968498;fill-opacity:1"
       d="m 372.25263,1051.6545 c -13.00957,-2.7409 -23.67179,-10.8703 -28.90704,-22.0365 -2.56654,-5.4749 -2.94119,-7.6873 -2.94119,-17.379 0,-9.8801 0.33792,-11.7966 3.06792,-17.35391 3.78479,-7.70679 12.16454,-15.71357 20.56822,-19.65274 5.56372,-2.60846 7.72931,-2.97667 17.48026,-2.97667 10.33765,0 11.65694,0.26478 18.54439,3.65043 8.60898,4.23772 15.34353,11.18569 19.60901,20.22878 2.46335,5.22251 2.87003,7.55751 2.80429,16.10411 -0.11131,14.1484 -4.29165,23.5347 -14.05804,31.5456 -7.9205,6.4974 -25.02166,10.2189 -36.16782,7.8699 z m 21.73617,-14.6003 c 9.87859,-4.6966 16.88737,-17.6329 15.40721,-28.4336 -2.08955,-15.24205 -15.32627,-25.80003 -30.61072,-24.41347 -14.64695,1.32517 -25.57058,12.84983 -25.59802,27.00107 -0.0397,21.6446 21.25795,35.1374 40.80153,25.846 z m -390.65737,-25.482 0,-40.09213 23.60109,0.46036 c 21.00646,0.40472 24.2814,0.72513 29.79724,2.8958 13.25671,5.20853 21.01359,15.87114 21.01359,28.88417 0,10.7142 -1.83974,15.3968 -8.85624,22.5401 -8.89385,9.0543 -14.88395,11.0252 -35.84591,11.7966 l -16.38195,0.5995 0,6.503 0,6.5016 -6.66344,0 -6.66438,0 z m 51.91416,11.0044 c 6.70387,-3.1288 9.56691,-7.6524 10.02554,-15.8433 0.45058,-8.06804 -1.61878,-12.71725 -7.89595,-17.73887 l -4.26447,-3.41052 -18.22533,-0.34904 -18.22613,-0.34904 0,20.02927 0,20.0294 12.49437,0.3347 c 16.06544,0.4326 20.32993,-0.01 26.09197,-2.6977 z m 35.825575,-10.8928 0,-39.98333 20.491165,0 c 11.27021,0 23.14048,0.55815 26.37737,1.24147 16.88059,3.57788 27.1649,14.18612 28.37581,29.26916 1.06431,13.2696 -5.84868,25.203 -18.06305,31.1787 -6.65552,3.257 -6.75593,4.1177 -1.08806,9.3849 1.64247,1.5273 3.97161,4.1511 5.17538,5.8306 l 2.18775,3.0549 -8.13518,0 -8.13559,0 -5.54516,-6.5267 c -4.9503,-5.8265 -6.1113,-6.6049 -10.82036,-7.2578 -2.90167,-0.4047 -7.77469,-0.4047 -10.82886,0 l -5.55304,0.7395 0,4.7636 c 0,7.7402 -0.51363,8.2787 -7.893325,8.2787 l -6.54429,0 z m 51.438945,12.3588 c 15.51026,-7.6357 15.68572,-29.91635 0.29258,-36.90756 -3.75519,-1.70594 -7.37873,-2.06308 -21.18877,-2.08256 l -16.65972,0 0.17726,20.82442 c 0.0978,11.4535 0.22193,20.9959 0.27589,21.2052 0.0557,0.2091 7.22346,0.2091 15.92769,0 13.95006,-0.3347 16.46006,-0.6973 21.17495,-3.0144 z m 31.18094,24.931 c 1.7838,-7.1057 21.78869,-75.28118 22.36297,-76.21016 0.36017,-0.58598 6.29281,-1.06019 13.18161,-1.06019 l 12.52511,0 11.29144,39.14915 c 6.21004,21.5317 11.29026,39.5244 11.28765,39.982 0,0.4604 -3.48711,0.8369 -7.74449,0.8369 l -7.74097,0 -1.53659,-5.2755 -1.53706,-5.2755 -16.72286,-0.3069 -16.72332,-0.3069 -1.854,5.5824 -1.85352,5.581 -7.80583,0 c -7.70585,0 -7.79688,0 -7.13014,-2.6921 z m 50.18629,-20.9764 c 0.0716,-0.1392 -2.46199,-9.7058 -5.63844,-21.3113 l -5.7745,-21.10199 -3.40521,-0.33473 c -2.5038,-0.25125 -3.56937,0.19567 -4.02457,1.66555 -1.07964,3.50116 -10.66156,40.84677 -10.66872,41.58747 0,0.5995 29.11628,0.1391 29.51143,-0.5025 z m 33.78624,-16.2116 0,-40.08513 16.38144,0 c 30.06673,0 42.49928,5.29084 51.18473,21.63769 2.67724,5.03974 2.9505,6.68574 2.95407,17.77094 0,9.3877 -0.48976,13.4942 -2.12608,17.7375 -2.96159,7.6803 -10.33533,15.1807 -18.71141,19.0334 -6.73107,3.0953 -7.51875,3.1943 -28.30387,3.5779 l -21.37888,0.3904 0,-40.0851 z m 40.53358,26.418 c 2.6106,-0.7252 6.34209,-3.1344 9.05891,-5.8517 11.74226,-11.7421 10.28288,-34.20696 -2.82073,-43.42584 -4.59792,-3.23617 -5.20997,-3.35472 -19.09698,-3.70901 l -14.34751,-0.36255 0,27.2996 0,27.2981 11.38407,-0.01 c 6.26107,0 13.3811,-0.5582 15.82225,-1.2415 z M 0,940.43524 c 0,-1.4423 5.06194,-50.87467 6.69326,-65.35934 0.58447,-5.19177 1.0671,-10.33758 1.07268,-11.43391 0,-1.75064 0.91088,-1.95425 7.39462,-1.66555 l 7.38571,0.33473 8.00183,20.61798 c 4.40146,11.3405 8.24091,21.33634 8.53343,22.21236 0.29289,0.87874 3.91199,-8.5479 8.04409,-20.94436 l 7.51194,-22.53876 7.3525,0.32122 7.35191,0.32043 4.69223,36.65091 c 2.58021,20.15765 4.720815,38.02485 4.755975,39.70433 0.0716,3.0241 0,3.0548 -7.104745,3.0548 l -7.16837,0 -0.58584,-3.60995 c -0.32503,-1.98492 -1.62643,-12.85536 -2.89774,-24.15547 -2.19585,-19.53135 -3.20519,-23.91966 -4.87879,-21.21215 -0.40456,0.65594 -3.15373,8.07228 -6.1052,16.47931 l -5.36686,15.28388 -4.97433,0.33475 -4.97393,0.33473 -6.53803,-16.14037 c -3.59603,-8.87715 -7.1324,-16.14872 -7.8583,-16.1585 -0.72669,-0.007 -1.59924,2.10493 -1.9407,4.7008 -0.65843,5.00072 -3.95817,40.77283 -3.95817,42.8973 0,0.79509 -2.60651,1.25536 -7.21958,1.25536 -4.70414,0 -7.21858,-0.44605 -7.21858,-1.28327 z m 99.726345,-30.65145 c -0.17726,-17.56182 -0.16066,-35.55458 0.0397,-39.98338 l 0.368135,-8.0513 31.00588,0 31.00677,0 0,6.10818 0,6.10828 -24.4341,0 -24.43361,0 0,7.77382 0,7.77516 19.43569,0 19.43592,0 0,5.55304 0,5.55306 -19.43592,0 -19.43569,0 0,13.32829 0,13.3268 24.98875,0 24.98858,0 0,7.2186 0,7.22002 -31.60404,0 -31.60458,0 z m 79.083585,-8.0528 0,-39.98188 18.04746,0.0157 c 11.50135,0.009 20.06135,0.54383 23.59996,1.49667 12.59047,3.36315 21.01632,10.05022 25.96712,20.60686 2.56033,5.45962 2.90921,7.60357 2.90921,17.86578 0,10.23438 -0.35143,12.40903 -2.87633,17.77102 -3.99243,8.47681 -7.62139,12.40344 -15.1142,16.35239 -9.02292,4.75663 -15.68146,5.85996 -35.37397,5.85996 l -17.15926,0 z m 43.57168,24.57816 c 17.92974,-8.67911 18.42983,-39.15482 0.80343,-48.99858 -4.32041,-2.41317 -6.60525,-2.81636 -17.99808,-3.172 l -13.04953,-0.40469 0,28.02208 0,28.02351 12.53177,-0.47467 c 10.07313,-0.39038 13.54822,-0.97644 17.71265,-2.98793 z m 40.83502,-24.57816 0,-39.98188 6.66348,0 6.66395,0 0,39.98188 0,39.98337 -6.66395,0 -6.66348,0 z m 39.60341,7.49617 c 5.15305,-17.86578 10.36604,-35.85854 11.58443,-39.98187 l 2.21584,-7.49618 13.00277,0.009 13.00288,0.009 11.02882,38.58419 c 6.0666,21.222 11.25113,39.23433 11.52274,40.0252 0.38245,1.1159 -1.3503,1.36699 -7.58491,1.1159 l -8.07784,-0.33473 -1.49661,-5.14437 c -0.94987,-3.26407 -2.24914,-5.34108 -3.55602,-5.68281 -1.13259,-0.2926 -7.69016,-0.36257 -14.57229,-0.13912 -6.8822,0.22349 -13.60919,0.40469 -14.9498,0.40469 -1.99345,0 -2.69496,1.00435 -3.8596,5.55313 l -1.4232,5.55306 -8.10323,0 -8.10369,0 z m 41.49104,8.33038 c 0,-0.46036 -2.58524,-10.47848 -5.76829,-22.26677 l -5.78688,-21.43396 -3.28873,0.33472 -3.28929,0.33472 -5.35896,20.54684 c -2.94738,11.30002 -5.36906,21.17176 -5.3811,21.93471 0,1.04619 3.59382,1.381 14.416,1.381 7.94047,0 14.4465,-0.37687 14.45725,-0.83691 z m 36.63096,-15.82655 0,-39.98188 7.21909,0 7.21901,0 0,33.87362 0,33.8737 18.88048,0 18.88086,0 0,6.10968 0,6.10825 -26.09988,0 -26.09956,0 z m 63.33813,36.92857 c 0.56612,-1.67945 5.558,-18.7977 11.09459,-38.03891 5.53619,-19.24121 10.32921,-35.85863 10.65021,-36.92849 0.51363,-1.70737 2.16636,-1.94305 13.5913,-1.94305 l 13.00645,0 10.96664,38.03885 c 6.03188,20.92067 11.1981,38.91343 11.48186,39.98187 0.4548,1.71579 -0.40071,1.94453 -7.30008,1.94453 l -7.81421,0 -1.84461,-5.55313 c -2.11103,-6.35512 -0.37766,-5.85574 -20.85451,-6.00498 l -14.19144,-0.13912 -1.83808,5.83063 -1.83832,5.8307 -8.06847,0 -8.06905,0 z m 44.82254,-41.64885 c -3.27147,-11.75904 -5.95584,-21.75346 -5.96556,-22.21238 0,-0.46034 -1.47894,-0.83689 -3.26398,-0.83689 -2.68518,0 -3.44439,0.62812 -4.3974,3.60992 -1.22467,3.83465 -10.12696,39.18553 -10.12696,40.21071 0,0.33472 6.68296,0.5995 14.85065,0.5995 l 14.85066,0 z m 40.66223,4.72028 0,-39.98188 23.60091,0 c 20.8683,0 24.14415,0.26478 28.29761,2.15645 8.75073,3.97274 12.35208,14.50693 8.18232,23.93508 -2.75012,6.21703 -2.7323,6.09148 -0.86202,6.09148 2.47805,0 10.95233,7.98444 12.5615,11.83578 2.20335,5.27405 1.89257,16.67036 -0.60267,22.16768 -1.14246,2.51494 -3.85744,5.92968 -6.03409,7.59103 -7.06848,5.39125 -12.05177,6.16264 -39.77453,6.16264 l -25.36793,0 z m 51.29482,26.61606 c 9.34067,-2.59312 13.16251,-14.66174 6.97339,-22.01703 -3.82938,-4.55155 -10.84715,-5.85305 -29.45286,-5.46521 l -14.93256,0.30692 -0.31087,14.16099 -0.3109,14.15955 16.97006,-0.004 c 9.33354,-0.004 18.81204,-0.51601 21.0638,-1.14382 z m -4.24984,-40.29436 c 2.32348,-1.52187 2.93333,-2.8038 2.93333,-6.16687 0,-7.50737 -2.13181,-8.41822 -20.65983,-8.83523 l -15.99081,-0.36257 0,8.22709 c 0,4.52366 0.27032,8.49766 0.60107,8.82825 0.33316,0.33475 7.25781,0.51601 15.39259,0.41822 11.92847,-0.15348 15.35827,-0.55815 17.72303,-2.10905 z"
       id="path4959"
       inkscape:connector-curvature="0" />
  </g>
</svg>
