<?xml version="1.0" encoding="UTF-8"?>
<!-- Generator: Adobe Illustrator 21.0.2, SVG Export Plug-In . SVG Version: 6.00 Build 0)  -->
<svg version="1.2" baseProfile="tiny" id="Layer_1" xmlns="http://www.w3.org/2000/svg" xmlns:xlink="http://www.w3.org/1999/xlink" x="0px" y="0px" viewBox="0 0 794 567" overflow="scroll" xml:space="preserve">
<path d="M371.3,403.3c1.9-7.4,11.4-0.9,14.9,2.4c-4-1.6-7.8-3.5-12-4.5C373.4,401.7,372,402.8,371.3,403.3 M496.4,361.6  c0.5,0,1.4-0.1,1.8-0.2c0.4,5.6,4.4,10.3,10.2,10.4C501.7,375.2,496.5,367.6,496.4,361.6 M409.5,201.5c-0.1,0.5-0.3,1.6-0.3,2.1  c4.4,0.7,8.8-0.5,12.4-3c0-0.6,0.1-1.8,0.1-2.4C417.4,198,413.2,199.3,409.5,201.5 M403.8,207.9c-1.9-10.1,12.8-14.9,20.2-10.9  c3,5.5-0.1,11.8-4.2,15.8c1.5,2.8,2,5.9,1.8,9c3.6,0.8,11.7-1.7,11.4,4c-3.3,4.8-10.3,5.8-15.5,3.7c-3.4-4.1,4-8.7,1.6-13.3  C415.7,211,409.1,210,403.8,207.9 M678,177.9c4-3.2,7-7.6,11.7-9.9c-6.7,10.8-17.4,18.8-29,23.8c-5.2,2.3-11.8,3.4-16.6-0.4  C656.9,192.6,668.5,185.9,678,177.9 M201.6,164.3c2.4,6.5,1.9,14.5-1.7,20.5C200.9,178,200.7,171.1,201.6,164.3 M333.8,162.3  c6.9-4,17.1-1.5,21.6,4.9C348.7,163.7,341.4,161.8,333.8,162.3 M394.3,132.5c3.7,3.9,5.1,9.6,5,14.8  C396.4,142.9,395.8,137.5,394.3,132.5 M320.7,118.2c-0.4-5.4,0.9-11.8,6.3-14.4C324.4,108.5,322.9,113.5,320.7,118.2 M333,104.9  c3.2-2.3,6.9,0,8.7,2.9c-2.7-0.2-6.2-2.2-8.3,0.5c-4.3,4.3-3.7,10.9-5.1,16.4C325.5,118.3,327,109,333,104.9 M394.9,114.7  c-2-4.9,0.1-11.7,5.5-13.2C397.8,105.6,395.7,109.9,394.9,114.7 M680.5,429.5c-15.3,9.3-24.3,26-29.3,42.8  c-2.6,10.6-4.7,22.4-0.4,32.8c3.4,5.5,11.2,2.4,14.9-1.4c12.3-11.8,18.5-28,28.3-41.8c3.8-8.1,15.8-6.4,19-15.1  c3.9-8-3.8-16.5-11.9-16.4c-1.6,9.1-11.5,16.2-20.5,12.5c7.4-0.6,16.7-4.1,17.2-12.8C694.3,424.1,685.4,426.4,680.5,429.5   M427.8,416c4.5,5.8,11.1,9.7,17.8,12.4c17,6.1,35.5-0.7,52.7,4.4c11.5,3.6,19.7,12.9,27.5,21.6c2.2-2.2,4.5-4.4,7-6.4  c-6.5-3.5-12.1-8.4-17.4-13.4c-7-6.5-16.6-11-26.3-9.8c-12.3,1.5-24.6,5.2-37.1,3.2C442.8,426.7,434.9,421.6,427.8,416 M629.3,388.3  c-3.4,4.6-2.5,10.9-4.3,16.1c-5.6-1.1-6.4-11.8-13.4-11c-4.1,3.1-5.4,8.7-6.9,13.4c-5.8,22.4-18.6,42.7-35.2,58.7  c-7.4,8.2-16.4,18.3-13.4,30.3c4.7,12,20.8,14.2,31.1,8.5c28.9-13.9,46.2-44.5,51.7-75.2c1.6-11.4,3.1-23.6-1.5-34.5  C635.9,391.5,633.4,387.2,629.3,388.3 M532.2,370.2c6.7,2.8,13.6,5.9,20.9,6c-4.6-4.5-7.5-10.3-10.6-15.8  C539.1,363.6,535.5,366.7,532.2,370.2 M584.6,352.8c3.2,2.7,6.3,5.7,8.1,9.6c-4.7-3.6-8.8-9.9-15.5-9.1c-2.5,0.5-7.5,2-5.9,5.3  c4.1,7.7,9.6,15.2,17.2,19.8c8.7,3.4,15.8-7.6,13.1-15.3C599.6,356.3,592.2,346.9,584.6,352.8 M273.8,354.7  c-4.2,9-2.1,19.4,1.1,28.3c11.8,24,42.5,31.5,53.3,56.2c-2.5-2.5-4.5-5.4-6.6-8.2c-24.6,8.1-50.6,2-74.6-5.1  c-7.3-2.2-16.9-3.9-22.7,2.5c-4.4,6.7-1.2,15.2,3.7,20.6c12.8,16,35.4,19.7,54.5,15.3c10.1-2.6,20.9-3.7,31.2-1  c0.4,0.5,1.2,1.4,1.5,1.8c0,3.7-1.7,7.1-4,10c-9.5,12.6-24.4,19.5-39.1,24.1c-5.4,2.5-13.9,3.8-14.7,11c1.1,7.9,9,13.1,16.7,13  c16,1.3,29.7-9,41-19.2c5.2-3.8,9.4-9.7,16.1-10.9c12-1,24.6,1.7,36.1-2.9c8.1-2.8,13.9-10.4,15-18.8c-7,0.9-14.4,2.3-21.1-0.7  c6.9-0.8,14.2,0.1,20.8-2.7c13.4-4.6,22-19.3,19.9-33.3c-2.2,2-4.3,4-6.7,5.7c5.8-12.2,19.5-17.2,28.6-26.5  c-1.3-2.3-2.6-4.7-3.6-7.1c2.5,1.2,4.5,3.2,6.2,5.3c11.8-10.3,8.7-31.3-5.1-38.3c-4.6-3-12.3-6.1-16.1-0.5  c-5.3,14.1-8.4,30.2-20,40.8c0.2-0.8,0.5-2.4,0.7-3.2c-7.4,2-15,3.8-22.8,3.4c-1.9,0-4.3-0.7-5.3,1.4c-14.3-5.5-25.5-16.6-36.4-27.1  c-8.5-8.3-16.8-16.8-23.3-26.7c-3.6-5.2-7.6-11.2-14.3-12.6C279.6,347.9,275.8,351.3,273.8,354.7 M564.6,343.6  c5.3-2,10.1-5.4,14.2-9.3C573.7,336.8,568.5,339.6,564.6,343.6 M498.1,337.3c1.7,2,3.5,4,5.3,5.9c0.9-3,1.8-6.1,2.6-9.1  C503.3,334.9,500.6,336,498.1,337.3 M699.4,330.6c-0.5,0.5-1.4,1.6-1.9,2.1c0.1,2.5,0.2,5,0.3,7.6c4.6,3,12,4.1,15.3-1.4  c-0.6-1-1.1-2.1-1.7-3.1C707.2,334.7,703.2,332.7,699.4,330.6 M508.2,336.1c-3.2,5.5-0.7,12.9-5.8,17.4c0.2-2.6,1.1-5,1.6-7.5  c-2.4-3-5.5-5.4-8.1-8.2c-4,1-7.9,2.5-11.8,4c1.9,2.8,3.5,5.9,3.7,9.4c-8.2-0.9-14.9-6-22.4-8.8c-1.8-1.1-3.3,0.7-4.7,1.5  c-0.1,12.3,13.7,14.3,21.6,20.1c-4.6,4-10.5,6-16.3,7.5c0,1.5,0,2.9,0,4.4c3.5,2.3,7.9,3.4,12,2.1c4.7-0.8,9.4-5.8,14-2.2  c5,4.3,12,6.5,18.4,4.1c1.6,2.3,3.3,4.6,5.1,6.7c4.4-5.3,8.9-10.5,13.6-15.6c-2.7-2.1-5.4-4.2-8.1-6.4c-1,0.5-1.9,1-2.9,1.5  c2.4-6.5,2-13.7-1.2-19.9c-2.8-5.3,2.5-10,2-15.4C515,331.5,509.8,331.8,508.2,336.1 M543.2,340.3c-3.3,5.1-0.5,11.3,0.5,16.7  c6.1-5.1,12.4-9.8,18.8-14.4c-0.6-4.4-0.6-8.9-0.5-13.3C555.9,333.1,548.9,335.7,543.2,340.3 M468.2,329.7c2.3,1.9,5.1,3.5,8.2,3.3  C474.5,330.4,471.1,330.1,468.2,329.7 M513.5,329C514.3,332.9,516.9,326.7,513.5,329 M701.5,329.7c6.1,5.7,17,5.7,22.6-0.6  c1.9-1.8,0.4-4.1-0.8-5.8C717.2,328.4,709.1,329.1,701.5,329.7 M520.5,330c-0.1,4.2-1.1,8.3-2.9,12.1c2.5,6.6,6.8,13.4,4.3,20.8  c3,2,5.8,4.2,8.9,6.1c3.7-3.6,7.5-7.1,11.3-10.6c-1.7-4.8-2.1-10-2-15.1c-1.6,1-3.2,2.1-4.8,3c7.4-11.5,21.7-14.9,30.8-24.4  C550.6,322.8,535.6,326.9,520.5,330 M483.7,341c3.4-1.9,7.1-3.4,10.8-5c-4-5.1-6.8-11.5-12.5-14.9  C474.6,325.6,478.1,336.4,483.7,341 M706.4,317.5c-9.5,3-19.9-4.8-28.7,1.2c-16.3,9.7-31.5,21.1-47.1,31.9  c-4,6.5-9.2,12.1-14.3,17.7c-1.7,8.3-1.7,19-9.9,23.9c-9.1,5.8-19.7,0.7-27.8-4.4c1.1,3,2.9,5.6,4,8.6c-4.3-3.7-7.8-8.3-12.7-11.3  c-11.9-7.5-27.4-5.1-39.1-13.1c-5,5.1-10,10.3-14.3,16c14.1,17.4,31.7,31.9,50.6,43.8c-2.7-0.4-5.4-1-8-1.7c0.8,2.1,1.6,4.1,2.2,6.3  c-2.7-2.7-4.4-6.2-7.1-8.9c-1.7,8-4.8,15.8-10.6,21.6c0-0.9-0.1-2.8-0.1-3.7c-14.7,7.2-25.2,21.7-28.3,37.6  c-1.4,5.2-1.2,10.8-3.4,15.8c-2.5-10.6,2.3-20.9,4.9-31c-3.5-1-7.3-1.4-10.9-0.1c-12.6,4.4-24,12.1-32.5,22.4  c-3.8,5.3-7.7,11.2-7.2,18c5.1,7.8,15.1,3.2,20.2-2.1c-2.1,5.9-8.1,8.5-13.9,9.4c2.6,12.6,22.9,8.5,23.1-3.2  c2.5-10.6,5.2-21.8,11.9-30.6c-3.3,11.4-8.8,22.4-8.7,34.6c-0.3,7.1,2.4,15,8.9,18.6c7.6,3.5,16-0.1,23-3.2  c12.3-6.3,23.5-14.2,35.6-20.6c-0.7,1.4-1.4,2.8-2,4.2c18.3,0.2,35.2-9.5,47.5-22.5c7-7.5,15.2-14,24.2-19c1-6.2,2.4-12.4,5.8-17.7  c-2.6,11.4-5.5,23.5-2.2,35c1.8,6.5,4.4,13.7,10.8,17c-4.7-8.3-3.5-18.3-2.7-27.4c4-18.8,12.5-37.8,28.1-49.9  c6-4.7,14.1-8.6,21.5-4.6c-5.9-7.3-17-5.6-24.1-1c-11.8,8-18.8,21.2-23.8,34.2c-3.8,9.1-4.2,19.1-6.5,28.5  c-1.7-21.4,7.4-41.9,19.9-58.7c-3.6-7.3-14.5-9.9-20-3.5c-5.8,29.3-19.8,58.9-45.6,75.5c-9.6,6.3-22.5,11.5-33.4,5.4  c-6.8-2.7-11.5-10.1-10-17.4c2.5-14.4,14.2-24.6,24.1-34.3c11.8-14.2,20.9-30.8,25.3-48.8c1.7-5.3,3.7-11.3,8.7-14.2  c6.3-1.2,8.4,6.6,11.7,10.3c2.1-4.6,1.7-10.1,4.1-14.6c2.4-2.5,5.7-0.1,8.2,1.1c-1.7-4-4.3-7.7-5.4-12c1.7,1.8,3.1,3.7,4.5,5.7  c0.6-2.3,1.4-4.6,2.4-6.7c-0.8,8.3,1.9,15.8,5,23.3c9.3-13.1,16.2-27.5,24.5-41.2C671.5,350,674,341,680,334c0-1.7,0-3.4,0-5.1  c0.5-0.3,1.6-0.8,2.2-1c-0.4,3.5,0,7.1,1.8,10.2c2.8,3.9-4.8,8.2-0.6,11.6c4.2,2.2,8.9-0.7,10.9-4.5c3.7-4.3-0.2-11.1,3.8-15.1  c6.6-4,15.5-2.2,21.6-7.4c2.8-2.4,3.4-6.3,2.1-9.7C716.1,311.7,711.7,316.5,706.4,317.5 M568.4,308c-0.8,1.8,2.6,4.1,3.5,2  C571.5,308.7,569.7,307.5,568.4,308 M624.5,313.6c-6.8,8.1-10.6,18.4-12,28.8c-2,10.1-0.8,20.8-4.6,30.5c-2.5,5.6-8.5,10.2-14.8,9.3  c-6.5-0.3-10.9-5.8-15-10.1c-7.4-7.6-11.5-17.6-14.8-27.5c-6.6,4.4-13.2,9.1-19,14.5c3.9,7.4,7.9,16.7,16.9,18.9  c6.3,1.7,11.4,5.8,16.8,9.3c-2.5-4.1-6.2-7.3-8.5-11.5c7,6.3,14,13.7,23.8,15.3c7.8,2.3,16-3.3,18.3-10.7c3.4-8.1,1.7-17.6,6.6-25.1  c-0.3,3.1-0.9,6.1-1.3,9.2c5.2-4.6,9.5-10.3,11-17.2c4.3-14.8,9-31.7,1.7-46.3C628.3,305.3,627.2,309.8,624.5,313.6 M602.4,300.7  c4.4,0.2,8.4-1.8,11.4-4.9c-0.1-0.6-0.2-1.9-0.3-2.6C608.8,292.3,601.8,295,602.4,300.7 M628.7,296.6c0.4,3.9,4,6.2,4.5,10  c3.7,14.3-0.1,28.9-4.5,42.5c11.6-18.2,21.6-41.2,14.2-62.8C638.1,289.6,633.3,293,628.7,296.6 M601.6,293.7  c4.5-1.4,10.1-6,14.4-1.7c3.3,6-0.4,12.8-3.8,17.9c-4.9-4.2-13-1-16.8-6.6c1.2-4.1,4.2-7,6.6-10.3c-10.3,3.1-17.9,11.1-23.1,20.1  c-0.4-0.4-1.2-1.3-1.5-1.8c-2.3,0.2-4.6,0.5-6.9,0.9c0,2.3-0.1,4.6-0.2,6.9c8.3-0.1,16.6-2,24.9-0.5c-8.7,1.2-17.5,2-26.3,2.7  c2.5,4.1,5.7,8.1,10.1,10.4c4-0.7,6.7-4.3,10.8-4.9c-2.3,1.9-4.9,3.5-7.6,4.8c0.1,0.5,0.2,1.4,0.3,1.8c5.8,1.2,12.3,1.8,17.6-1.4  c5.1-2.9,7.8-8.3,11.3-12.8c-0.3,1.3-0.8,3.8-1,5.1c9.1-5,15.3-15,15.9-25.4c-1.8,0.9-3.5,2-5.3,3c1.8-1.9,3.6-3.8,5.3-5.8  c-0.7-2-1.4-3.9-2.1-5.9c-1.2,0.9-2.4,1.8-3.6,2.7c0.7-1.6,1.5-3.3,2.2-4.9C615.8,281.3,606,287.2,601.6,293.7 M625.9,287.1  c0.6,2.5,1.9,4.8,3,7.2c4.4-3.4,9.1-6.4,13.3-10c-2.1-3-4.6-5.6-7.4-7.9C631.7,279.7,628.3,283,625.9,287.1 M419.4,283.4  c-10.1,17.1-9,38.5-2.5,56.7c6.8,16.9,17.5,33.4,34.1,41.9c18.7,9.1,41.4,10.3,61,3.3c-0.6-1-1.2-2-1.8-3.1  c-8.3,3.6-16.1-1.4-22.1-6.8c-4.7,3.2-10.1,6.8-16.1,5.7c-4-0.5-8.9-3.2-8.7-7.9c2.9-6.9,12.5-4,17-9.3c-7.2-2.6-15.2-4.6-19.6-11.5  c-3.1-3.8-2.8-11.9,3.3-12.4c7.9,1.7,14.4,7,22,9.6c-0.4-3.7-3.9-5.7-5.9-8.5c-3.4-7.7-14.1-6.9-17.6-14.8c4,0.9,7.9,2.3,12,2.6  c0.8-4.1,2.7-9.2,7.5-9.7c3.1,0.5,5.1,3.2,7.3,5.2c3.8-3.9,6.5-9.6,4.6-15c-2.2-7.6-7.9-13.5-14-18.1c-11.3-8.4-24.9-13.7-38.8-15.1  C433.4,275.3,423.8,276.2,419.4,283.4 M538.2,262.9c-0.3,0.4-0.9,1.1-1.3,1.5c6,2.3,11.1,7.8,11.1,14.5c-0.4,3.8-4.5,3.9-7.3,2.8  c9.7,13.2,23.2,22.9,38.2,29.2c1-1.8,2-3.6,3-5.4c-4.2-17.2-16.7-32-32.4-40C546,263.7,542,263.2,538.2,262.9 M577.1,247  c6.3,1.7,9.4,7.9,10.3,13.9c-0.3,0.6-1,1.8-1.3,2.4c-1.2,0.1-2.5,0.3-3.7,0.5c5.8,9.1,11.9,18.5,20.8,24.9c2.1-1.5,4.2-3.2,6.3-4.8  c-2.8-13.7-11.1-25.9-21.7-34.7C584.7,247,580.5,243.6,577.1,247 M314.6,246c1.2,3,2.6,5.9,4.4,8.6c1.9-2.6,3.3-5.5,2.8-8.8  c-1.3-0.3-2.5-0.7-3.8-1C316.8,245.1,315.7,245.6,314.6,246 M103.9,286.2c3.6-3.1,8.2-5.1,10.8-9.2c-1.1,0.5-3.2,1.5-4.3,2  c-2.1-1-2.2-3-1.9-5c-1.8,1.4-3.7,2.8-5.9,3.4c-0.1-1.1-0.3-3.2-0.5-4.2c-3,1.3-6.3,3.9-9.5,1.8c3.9-0.8,7.8-1.9,10.8-4.7  c-0.3,1.5-0.5,3.1-0.7,4.6c2.9,0,4.7-2.3,6.7-3.9c0,2.1,0,4.2,0.2,6.2c4.6-0.4,8.8-2.7,11.8-6.3c-2.6-5-8-7.2-13.2-8.2  c-26.6-5.7-54.5,5-74.7,22.2c-3.8-3.1-8.6-4.7-13.5-4.2c-10.6,0.4-19,14.3-12.1,23.3c6,7.2,16.1,6,24.5,5.6  c-8,4.8-18.3,2.7-25.5-2.8c-6.7,7.3-5.4,20.8,3.6,25.6c6.7,3.7,14.3,0.4,20.9-2c-4.1,4.6-10.4,6.2-16.3,6.8  c9.2,13,31.3,6.3,35.9-7.5c11.6-2.9,23.7-6.5,32.8-14.7c-4-4.3-5.7-10.4-4.1-16.1c2.5-8.4,6.8-16.6,13.1-22.8  c-3.3,7.2-8.4,13.7-9.5,21.8c-1.1,4.9-0.5,10.8,3.9,13.9c6.7,4.7,15.4,3.2,22.9,2c20-4.7,38.4-14,57.5-21.4  c11.5-3.6,23.3-6.9,35.3-8.2c-14.3-5.3-29-11.1-40.3-21.8c-6.6-5.7-11.5-13-16.3-20.2C135.2,259.3,123.5,278.6,103.9,286.2   M583.9,239.5c-0.4,1.5-0.7,3-1.1,4.4c14.2,8.2,25.6,22.8,27.8,39.3c5-1.9,10.2-0.5,14.4,2.6c2.4-3.6,5.2-7,7.9-10.4  c-5.4-2.3-11.4,0.1-15.2,4.2C610.8,263.4,600.8,247,583.9,239.5 M576.8,235.8c0.6,2.8,1.4,5.6,2.1,8.5  C582.6,241.4,580.9,236.8,576.8,235.8 M510.7,239.3c2.3-2.1,5.4-4.2,5.6-7.7C513.7,233.6,512,236.4,510.7,239.3 M326.5,230.8  c13.8,6.5,27.9,12.7,42.7,16.1c-5.7-5-10.8-10.8-13.9-17.7C345.8,230.3,336.2,231.1,326.5,230.8 M520.1,242.4  c10.3-5.3,21.2-9.1,32.3-11.8c-1.2-3.7-2.4-7.4-3.9-11C537.9,225.5,527.1,232.3,520.1,242.4 M266.9,214c13.6,5.5,27.8,9.9,42.4,11.8  C296,219.5,281.9,212.8,266.9,214 M531.4,225.3c-11.2,6.6-19.5,16.7-28.6,25.7c2.5-10.3,9.9-18.2,15.6-26.7  c-14.5,14-24.9,32.5-30.1,51.9c5.4,0.7,10.8,0.2,16.2,0.4c-15.8,6-32.5-1.4-48-5.2c-10.5-3.3-23.7-4.4-32.1,4.2  c17.2-5.2,35.5,0.9,50.6,9.3c9.1,6,19,13.7,21.2,25.1c1.4,6-1.3,12.4-5.9,16.3c2.3,2.8,3.7,6.7,6.8,8.6c4.9-1.1,10.1-2.3,13.8-6  c3.2-3.1,7.7-0.2,11.4-1.6c14.8-3.6,30-5.5,45-8.1c1.9-6.5-2-13.3-8.4-15.3c-10.4-4.8-22.1-2.2-32.3,1.6c8-6.9,19.3-7.8,29.3-5.8  c-8.9-7.5-17.7-15.9-21.8-27c-1.3-3.2-0.5-7.2-3.1-9.8c-2.9-3.8-7.5-5.1-11.3-7.8c5.9-0.3,10.3,3.9,14.4,7.4c0-6.7-5-11.4-8.2-16.8  c5.9,2.7,9.7,8.7,10.9,14.9c6.4-0.2,12.5,2.4,18,5.4c13.2,8.4,24.4,21.2,28,36.6c0.3-0.1,1-0.3,1.4-0.3c4.5-5.8,11.1-9.2,18.3-10.3  c-0.1-0.7-0.3-2.2-0.3-2.9c-3.8-2.6-7.4-5.7-10.2-9.4c-7.7-9.5-15.3-20.3-16.1-33c0-4.1-0.3-8.1-1.7-12c-2.9-0.6-5.9-1.1-8.8-1.5  c-1.7,2-3.1,4.1-4.9,6c-0.3-2.1-0.5-4.1-0.6-6.2c-17.1,0.6-32.9,7.8-47.1,16.9c0.4,0.2,0.8,0.3,1.2,0.5c2.4-1.9,5.5-2,8.5-2.5  c0.1,0.5,0.4,1.4,0.5,1.8c-11.1,2.6-7.8,16.3-3.2,23.3c-0.5,0.1-1.6,0.2-2.1,0.3c-4.6-5.6-9.5-13.6-5.6-20.9  c-0.2-0.4-0.4-0.8-0.6-1.2c-1.3,1.1-2.6,2.1-4,3c11-20.8,32.1-34.5,53.7-42.6C550.5,215,540.4,219.1,531.4,225.3 M231.2,224.3  c7.2-5.5,15.5-9.6,24.2-12.2c-3.5-1.9-6.8-3.9-10.5-5.4C238,209.9,233.3,217,231.2,224.3 M159.8,201.8c-5.1,8.7-11.8,16.3-17.6,24.5  c8.5,24,28.8,43.4,53,51.4c22.3,7.8,46.8,7.8,69.7,3.2c-1.8-5.1-4.5-9.8-6.6-14.8c-23.2,2.4-45.5-9.9-60.5-27  C187.1,225,177.4,208,159.8,201.8 M439.8,202.1c-1.2,4.7-2.9,9.3-5.8,13.3c2.5,1,5,2.1,7.4,3.4c5.3-5.9,9.9-12.7,11.2-20.6  C448.3,199.4,444,200.7,439.8,202.1 M455.4,202.3c-2.9,6.6-7.1,12.6-12.1,17.8c3.1,4.7,1.8,11.2-3.1,14.1c-6,5.2-14.9,2.1-21,7  c-19.6,12.7-45.2,14-66.7,5.4c-5.9-3-12.7-3.1-19.1-2.1c-4.8,3.7-8.4,8.7-13.5,12.2c18.1,51.5,35,105.1,70.1,148  c4.9-8.7,8.1-18.1,10.7-27.7c1-3.8,2.8-8.4,7.3-8.9c16.9-2.6,32.1,14.9,29.9,31.2c-0.7,6.1-4.5,11.2-8.3,15.8  c6.7,5.6,14.8,9.8,23.5,10.6c16.7,2.6,33.1-7.5,49.6-2.5c13.3,3.7,19.5,18.2,32.2,23c3.6-0.8,6.9-2.3,10.4-3.5  c2.9-5.2,5.3-11.4,4.4-17.3c-12.4-10.5-24.5-21.7-34.5-34.6c-3.9,5.1-6.7,10.8-10.9,15.7c0.6-7.2,6.6-12.4,9.8-18.5  c-22,7.2-47.4,9.2-68-2.9c-17.3-10.4-28.4-28.7-34.6-47.5c-6.3-20.8-5.4-46.2,10.1-62.9c6.2-7.8,17-11,26.6-8.9  c12.5,2.7,24.1,8.7,37,9.7c5.8-19.7,16.6-37.6,30.4-52.6c0.9-11.3,4.7-22,10.5-31.7C502.2,192.2,478.5,196.5,455.4,202.3   M408.1,195.1c-11.3-4.1-24.3,0.2-31.9,9.1c-1.8,3.1-4.2,5.7-7.2,7.6c6.2,0.4,12.5,0.9,18.6,2.4c-10.4,3-21.1-2.9-31.4-0.2  c-1.1,4.2-0.9,8.5,0,12.7c9.5-0.9,18.3-5.5,27.8-6.2c-8.3,4.4-17.8,6-26.8,8.2c4,8.1,10.2,15.8,18.8,19.1  c15.1,1.2,30.6-2.4,43.9-9.6c-3.4-0.6-6.9-1.4-10.2-2.6c10.5-0.3,25.5,2.6,31.7-8.2c2.1-8.7-8.9-9.8-14.8-11.8  c2.2-0.3,4.5-0.6,6.7-1c1.3-3.6,2.5-7.3,3.6-11c-1.6-0.4-3.2-0.9-4.8-1.3c1.6-0.8,3.2-1.6,4.8-2.4c-0.2-1.6-0.4-3.2-0.6-4.8  c-2.5,1.1-4.9,2.4-7.7,2.5c1.8-2.4,5.5-2.8,6.7-5.6C428.2,182.9,415.4,189.6,408.1,195.1 M439.1,193.9c0.3,1.8,0.5,3.6,0.8,5.4  c4.5-0.6,8.8-2.3,13-3.7c-0.1-3-0.5-6-1.3-8.9C447.3,188.9,443,191.1,439.1,193.9 M396.4,186.8c-0.8,0.8-0.9,3.3,0.6,3.2  C397.8,189.2,397.8,186.8,396.4,186.8 M519.9,219.2c5-3.1,9.6-7,15.2-9.2c-4.4,5.7-10.4,9.8-15.1,15.2c-0.1,1.8-0.1,3.7-0.2,5.5  c7.5-5.7,15.4-11,23.9-14.9c1.5-0.7,3.9-1.5,3-3.6c-2.3-10.6-2.4-21.5-4.4-32.2C528,187.2,522.3,204.4,519.9,219.2 M281,172.1  c-9.6,12.5-24.9,18.8-40.4,19.4c6,1.6,12.3,1.1,18.5,1.1c-5.7,3.1-11.8,6-16.2,11c3.6,0.3,6.6-2.2,9.9-3.2c-0.2,0.4-0.5,1.3-0.7,1.8  c-1.8,1.1-3.6,2.2-5.2,3.5c5.6,2.2,10.7,6.8,17.1,5.5c16.3-1.9,31.5,5.5,46,12c4.9,2,9.5,5.5,15.1,5.2c9.8,0.1,19.9,0.8,29.6-1.6  c-1.8-4.5-1.4-9.4,0.4-13.8c-9.9-2-19.7,0.6-29.3,3c5.3-5.1,13.2-4.8,19.9-6.4C321.7,201.8,299.9,188.4,281,172.1 M397.5,160.5  c-0.8,1.4-1.5,2.8-2.2,4.2c3.5,8.1,3.9,17.2,2.9,25.9c3.4,0.6,6.7,1.4,10.1,2.1c-6.3-9.6-7.3-21.3-7.6-32.5  C399.6,160.3,398.6,160.4,397.5,160.5 M522.9,150c-16.5,22.3-41,37.5-66.8,46.6c0.1,0.5,0.2,1.4,0.3,1.9c24-6.7,48.9-9.5,73.7-11.6  c3.3-3,6.1-7.6,10.9-8c3.6-0.1,4.2,4.1,5,6.8c25.7-0.7,51.3,2.4,76.6,6.9c-2.8-2.7-11.6-7.2-4.7-10.2c-4.1-2.5-4.9-8.1,1.2-8.4  c-1.3-4.7-1.6-9.5-1.7-14.3c-29.4-5.5-58.8-11.1-88.5-14C525.7,144.7,524.5,148,522.9,150 M106.4,145.6c-9.1,3-17.4,10.1-20.4,19.4  c5.4,15.2,10.2,30.9,11.1,47.1c1,8.8,0.9,17.8,3.5,26.3c0.9,3.2,2.3,7,5.7,8.4c6.5,1.5,11.2-4.3,14.3-9.1  c9.2-15.4,11.7-33.9,10.6-51.5c-0.2-11.1-1.8-22.5-6.5-32.7C121.8,146.4,113.5,143,106.4,145.6 M491.4,143.1  c-7.4,16.1-20.3,28.8-34.3,39.3c0.4,1.3,0.7,2.5,1.1,3.8c-1.5-0.1-2.9-0.3-4.4-0.4c1,2.8,1.9,5.6,2.8,8.4  c26.5-9.2,50.9-25.7,67.3-48.8C513.1,144.5,502.3,143.1,491.4,143.1 M427.3,147.1c0.7,10.4,1.6,20.9,3,31.2  c6.1-5.1,15.8-10,22.6-3.4c-0.7,0.5-2,1.6-2.6,2.1c1.8,1.3,3.7,2.5,5.5,3.8c13.5-10,26.4-22.1,33.1-37.8  C468.3,142.4,447.6,143.5,427.3,147.1 M411,138.7c-2.3,7-3.8,14.4-8.2,20.5c-1.3,5.1-0.5,10.8,1.3,15.8c0.7-2.7,1.5-5.3,3.2-7.5  c0.5-0.1,1.6-0.2,2.2-0.3c3.3,2.5,6.3,6,6.3,10.4c-1.9-3.3-3.2-7-6.5-9.3c-0.7,0.4-2,1.1-2.7,1.4c-3.3,7.3-0.7,15.3,2.6,22  c0.4-0.2,1.3-0.5,1.8-0.6c-2.7-5.2-5.5-12-1.9-17.4c4.7,0.2,4.9,6.8,6,10.2c0.3-2.2,0.7-4.4,1.2-6.6c0.6,3.3-0.2,6.7,1.6,9.8  c0.7-0.1,2-0.4,2.7-0.5C422.7,170.3,420,152.6,411,138.7 M362.5,137.5c-1,21,5.4,43.2,20.3,58.4c1.7-0.9,3.4-1.8,5.2-2.7  c-2.8-6.7-5.3-15.8,0.4-21.7c1.6-2.4,4.4-0.8,6.4,0c-1.9,0-3.8-0.1-5.6-0.2c-3.1,5.7-3.3,12.5-1.5,18.7c0.2,1.9,1.9,2.5,3.5,2.6  c-1.3-5.4-4.2-12.2-0.8-17.2c5-1.4,5.1,6.4,6.7,9.5c0.5-3.6-0.5-7-1.6-10.3c-0.1-3.8,1-8.8-2.9-11.2  C381.6,155.9,373.2,145.2,362.5,137.5 M411.9,135.9c9.9,14.3,12.4,32.7,10.2,49.6c6.2-0.7,12.5,1.2,16.6,6c3.8-2.3,7.7-4.4,11.4-6.8  c-0.4-1-0.8-2-1.1-3c1.7,0.5,3.5,1.1,5.3,1.5c-1.9-2.8-5-4.4-7.9-5.8c0.9-0.9,2.3-1.6,2.6-2.9c-7.3-1.9-13.9,2.5-19.5,6.6  c-5-18.6-4.3-38.6-11.7-56.6C415.3,127.9,413.4,131.8,411.9,135.9 M79.3,106.3c-6.6,11.3,1.5,29.1,15.5,28.7  c-8.9,5.1-19.4-5-21.5-13.9c-13,4.1-18.8,22.5-8.9,32.4c8.4,7.3,20.9,2.1,25.8-6.7c-0.8,5.2-4.9,8.8-8.6,12.1c1,1.2,2.1,2.5,3.1,3.7  c5.4-11.4,17.4-20.6,30.3-19.6c9.2,1.7,13.3,11.4,15.4,19.5c5.6,25.1,5.1,53-8.3,75.7c-2.9,5.3-7.7,9.5-13.7,10.8  c4.9,1.8,10.3-0.1,14.1-3.4c8.5-6.6,12.9-16.8,16.5-26.6c6.9-23.4,9.4-48.4,5.4-72.5c-0.7-4.9-2.5-9.6-2.7-14.5  c1.4-9.5,0-20.6-7.3-27.6c-5.4-4.8-13.6-8.5-20.5-4.4c-9.6,6.6-10.3,22.9-1.1,30.1c4.1,4,10.2,4,15.5,3.2  c-10.7,7.3-23.8-3.3-25.2-14.4c-1.5-7.2,2.2-13.9,6.1-19.6C99.7,92.3,85.4,96.5,79.3,106.3 M360.6,82.4c6,0.8,12,1.2,18,1.9  c-1.1-1.8-1.6-4.3-3.6-5.3C370.1,79.8,365.3,81,360.6,82.4 M207.4,78.4c18.1,6.6,31.9,23.3,35,42.3c2.2,10.8,1.4,22,4.5,32.6  c3.5,10.6,11.9,20.4,23.1,22.8c4.1,1.4,6.3-3.2,8.4-5.9c-1.5-1.8-3-3.6-4.5-5.4c1.8,1.2,3.5,2.5,5.2,3.8c1.8-3.2,3.8-6.6,3.7-10.4  c-3.5-5.5-9.9-0.3-14,1.6c1.9-5.8,6.5-10.5,12.5-11.7c-4.3-3.1-8-7.1-8.8-12.5c5.8,2.4,12.8,7,18.9,3c4.7-5.9,0.3-13.8-2.8-19.3  C271.6,91.8,238.6,79.1,207.4,78.4 M341.4,82.4c-4,1.2-7.7,3.4-11.8,4.1c3.2-4,8.1-6.2,11.7-9.7c-10.2,4.8-19.7,10.9-29,17.1  c0.9,1.3,1.9,2.5,2.8,3.8c-14.1-7-28-14.4-43.2-18.6c-19.9-5.7-41.6-8-61.8-2.5c31.7,0.5,65.2,14.6,81.4,43  c3.5,5.9,6.5,14.6,1.5,20.5c-5.4,4.5-13.1,1.7-18.3-1.7c3,4.2,7.2,7.4,11.4,10.2c-4.5,1.5-9,3.2-12.7,6.3c3.5-0.5,8.8-2.5,11,1.6  c1.8,4.7-1.2,9.3-2.6,13.7c17,14.7,36.4,26.8,57.5,34.6c7.6,2.7,15.5,5.6,23.7,5.4c5.3-0.3,11.1-4.1,10.2-10.1  c-2-15-13.7-27.6-27.4-33.4c16.5,2.1,28.1,18.6,30.5,34.1c1.6-1.3,3.3-2.5,4.9-3.7c-14-16.7-23-38.9-20.3-60.9  c-4.6-2.4-9.4-5.9-14.9-5c-4.8,1.5-6.9,6.7-9.8,10.4c-0.6-8.2,1.7-19.3,10.7-22c5-0.5,9.2,2.8,12.9,5.8  c11.4,9.3,20.1,21.3,29.6,32.4c1.5,1.8,3.6,3,5.7,3.8c1-5.2,0.2-10.5,0.7-15.8c1.8,4.3,1.5,9.1,3,13.5c7.1-13.6,7.8-30.1,16.3-43.2  c-2-3.6-3.9-7.3-6.5-10.5c-1.6-2.2-4.8-0.9-6,1c-2.9,4.1-2,9.4-3.2,14c-3.2-6.9-1.1-15.8,5.9-19.4C394,91,378.8,86.6,364,85.7  c-6.8-0.6-13.6,1-20.4,0.5c17.7-9.5,38.2-10.7,57.7-13.6C381,71.9,360.4,74.7,341.4,82.4 M141.9,71.7c1.2,1.7,1.9,3.6,2.1,5.7  c-4.8,0.5-9.6,0-14.4-0.7c2.1,2.9,4.7,5.5,7.3,8c-4.1,0.8-8.1,1.9-12.2,2.5c7.1,3.7,14.1,7.9,19.3,14.2c3.7-3.3,6.3-8.6,11.9-8.5  c-3.9,6-12.1,9.3-13.8,16.9c3.3,7.6,2.5,15.9,1.4,23.8c7.3,20.8,7.5,43.4,3.5,64.9c1-0.4,2-0.8,3.1-1.2c-0.3,1.2-0.6,2.3-0.9,3.5  c-0.6-0.2-1.8-0.6-2.4-0.9c-1.5,9.1-4.6,17.9-8,26.4c4.2-4.1,7.3-9.1,10.7-13.9c-0.9-1.5-2.1-2.9-3.2-4.2c1.1-0.2,2.1-0.4,3.2-0.5  c0.1,0.9,0.4,2.8,0.5,3.7c15.6-23.8,25.7-50.9,30.3-79c0.1,1.3,0.3,3.9,0.4,5.2c1.5-2.6,2.9-5.3,4.4-8c0.4,6-4.6,10.2-5.3,15.9  c-2.6,19.1-9.9,37.2-18.6,54.3c13.5,6,23.7,17.3,31.6,29.5c14,21.2,38.3,36.8,64.4,34.8c-2.7-9.3-11.8-14-20.1-17.5  c4.6-0.7,8.6,2.1,12.7,3.6c-3-6-7.9-10.8-11.4-16.4c12.8,8.7,18.5,24.1,25.6,37.3c21.9,46.9,45.6,93.9,80.7,132.4  c1.2,1.3,3.1,0.3,4.6,0.5c0.9,0.5,1.9,1,2.8,1.5c0-1,0.1-3.1,0.1-4.1c4.4-0.7,7.9,4.1,12.1,1.3c3.4,1.7,8.6,2.1,9.6,6.4  c-3.6-1.7-7-3.9-10.7-5.5c-0.6,0.8-1.1,1.6-1.7,2.3c-2.4-1.8-5.1-3.2-8-3.7c0.3,2,0.8,4,1.3,6c-2.6-1.2-5.3-2.3-8-3.2  c1.2,5.6,8.2,5.7,12.9,6.3c9.8,0.3,21,0.5,29.4-4.9c-18.5-21.1-32.1-46-44-71.3c-15-33-22.7-68.8-38.9-101.3  c3.3,2.9,5.3,6.8,7.7,10.4c5-2.5,10.7,0.4,9.2,6.4c2.6-2.1,4.9-4.5,7.4-6.7c-1.9-0.2-3.7-0.5-5.6-0.8c4.8-1.6,9.8-1.6,14.8-2.3  c-7.7-3.6-14.9-8-22.7-11.5c-16.8-1.8-33.1-6.5-48.9-12.4c-2.8-1.1-5.7-2.9-8.8-2.3c-10.7,1.5-20.2,7-29.5,12.1  c-1.2-9.3,6.6-15.4,9.9-23.2c-3.3-2.1-6.6-4.3-9.7-6.7c4,1.2,7.7,3.1,11.4,4.9c2.3-2.6,5.1-4.7,8-6.5c-5.5-1-11.7-1.1-15.9-5.4  c3.5-0.6,7-0.8,10.4-1.7c-6.3-3.3-12.5-7.8-15.4-14.5c3.6,2.4,6.5,5.6,10.1,7.9c-4.3-19.1-18.7-37.4-38.6-41.2  c1,11.6,1.1,23.7-3.4,34.6c0.7-16.4,2.4-33.5-3.1-49.3c-4.7-16.6-16.3-32-32.9-38.1c0.1,0.9,0.2,1.8,0.3,2.6  c-6.8-0.9-10.8,5.3-16.8,6.7c2.6-5,8.1-7.9,13.6-8.4c-2.2-0.8-4.5-1.5-6.2-3.2c15.6-2.3,30,9,37.6,21.8c5.4,9.8,8.5,20.6,10.7,31.5  c4.8,0.1,9.3,1.5,13.8,3.1c-11.6-14.8-18.4-32.5-29.5-47.6c-8.6-11.9-20.8-21.7-34.9-26C146.4,68.4,144.4,71,141.9,71.7 M22.2,62.7  C38,75.2,58.5,79,78,80.9c12.8,0.3,25.6,0.9,38,4.2c5.9,2.1,11.9-1,17.9-0.9c-2.6-2.7-5.7-5.2-7-8.9c5.4,0.3,10.8,0.9,16.2,1  c-0.1-3.3-3.5-4.3-5.6-6.3c2.9-0.2,5.8-0.4,8.6-0.8c-1.7-3.2-5.4-3.2-8.6-3.7c-27.5-3.2-55.1,1.2-82.6,1.4  C43.9,66.9,33.1,64.5,22.2,62.7 M287.3,35.7c5.9,10,16.4,15.9,25.8,22.3c7.5,5.8,11.1,14.9,14.8,23.3c8.5-4.3,17.3-8.6,26.7-10.4  c-4.2,3.5-9.6,5.4-13.7,9c10-3.5,20.1-6.9,30.7-8.3c-4.3-7.5-9.5-14.5-15.7-20.6c-6.1-6-15.2-5.7-23-6.6c-14.3-0.2-28.2-4.3-41-10.4  C290.2,33.1,286.2,32.6,287.3,35.7 M708.9,30.9c-5.3,4.7-6.9,11.9-10.4,17.7c-14,29.4-25.4,62.5-52.7,82.6c0.7,7.3,3,14.2,3.9,21.4  c-6.8-10-4.3-23.7-11.6-33.6c-6.4-9.4-19.3-13.5-30-9.8c-4.6,1.9-10.3,5.8-9.7,11.5c4.3,10.5,18.3,13,21.9,24  c2.5,10.4-2,21.9,3.2,31.8c2.2,5.5,7.1,8.9,10.8,13.2c-7-1.8-11.7-7.7-15.1-13.6c-1.3,0.5-2.7,1-4,1.5c2,1.9,4,3.8,5.9,5.8  c-1.5,0.6-3.1,1.1-4.5,1.8c4,4.3,9,7.7,14.6,9.7c8,1.8,14.6,7.3,22.8,8.1c11.8,1.3,23.2-4.5,31.8-12.1c11-9.9,23.6-18.1,37.4-23.7  c18.2-7.4,37-14.2,52.8-26.2c4.9-4.1,9.9-8.5,12.5-14.5c2.7-5.3,4.3-12.9-0.8-17.3c-0.7-0.1-2.1-0.3-2.8-0.4  c-17.7,20-43.7,29.2-66.6,41.9c19.1-15.8,45.1-22.3,61.5-41.6c7.1-9.3,13-22.5,8.2-34c-3-7.4-13.2-5.3-18-1  c-22.6,19.9-44.2,44.9-75.3,50.7c-1.6,3-2.3,6.4-3.5,9.6c0-14.2,8.2-26.6,16.2-37.7c9-12.4,17.9-26.6,17.8-42.5  c0.2-8-1.2-17.1-7.7-22.4C715.3,29.5,711.3,28.5,708.9,30.9 M700,39c2.9-6.7,8.5-14.5,16.9-11.9c7.6,4.4,12.1,13.3,12.5,21.9  c1.3,13.3-3.3,26.7-10.9,37.5c-8,11.5-17.4,22.2-22.8,35.3c25.7-5.3,44.7-24.8,63.3-41.8c5.7-5.1,11.1-11.5,19.1-12.9  c6.3-1.2,12.5,3.4,14.5,9.2c1.8,10.4,0.5,21.5-5.7,30.2c8.4,2.9,6.2,12.6,6,19.5c-1.9,7.3-7.5,13-13.3,17.5  c-13.8,11-30.8,16.9-47.3,22.7c-16.4,6-32.6,14.3-44.5,27.5c-7.5,7.2-17,13.5-27.8,13.3c-7,0.4-13.6-2.3-19.6-5.5  c-7.5-4.1-16.1-5.8-24.5-7.3c-22.9-3.9-46.4-6.5-69.6-5c0.8,7.9,2.2,15.7,4.5,23.3c9.3-3,19.1-4.3,28.8-4  c-8.5,4.7-18.9,5.1-27.6,9.6c1.4,4.1,2.8,8.1,4.5,12.1c4.8,0,9.6,0.1,14.3,0.6c-1.1-1.9-2.4-3.8-3.4-5.7c5.5,1.2,7,8.6,13.3,8.4  c-1.5-3.6-3.4-7-4.4-10.8c4.5,2.6,5.9,7.8,7.7,12.3c17.3,7.5,28.5,24.3,34.3,41.7c4.2-5.2,11.1-6.5,17.4-4.8  c15-16.9,32.3-31.5,49.9-45.5c2.9-2.1,5.7-4.4,9-5.7c-18.9,17.5-40.3,32.5-56.9,52.4c2.9,2.6,5.5,5.6,7.9,8.7  c20.1-13,42.5-22.1,65.3-29c7.2-1.9,14.2-5,21.8-4.7c-29.8,8.9-59.6,19.2-86,36c7.2,19.8-1.2,40.6-10.4,58.2  c15.4-8.6,28.7-21,45.1-27.9c8.1-2.2,16.3,3.2,24.5,1c5.5-0.7,9.8-6.4,15.5-4.8c4.6,2.1,4,7.7,2.9,11.8c1,0.9,1.9,1.8,2.9,2.7  c0.8,7.2-6.7,10.6-12.6,11.4c2.1,9.5-10.8,10.8-16.5,6.6c-2.1,3.9-4.6,8.3-9.2,9.6c-3.2,0.9-7.8-0.1-8.6-3.8c-2-4.7,6.2-9.3,0-12.6  c-10.5,22.6-21,45.7-36.9,65.1c0,6.7,0.6,13.4-0.1,20.1c3.9-2.3,8.5-4.4,13-2.6c3.5,2,5.8,5.5,7.8,8.8c6.4-5.4,14-11.1,22.9-10.2  c6.5,0.5,12.1,5,14.3,11.2c4.2,0.5,8.7,1.2,11.8,4.3c5.7,5.1,5.7,15-0.1,20.1c-3.9,5.1-11.9,3.1-15.6,8.4  c-10.9,14.9-16.8,33.6-31,46c-5.8,5.3-15.6,6.3-21.4,0.6c-8.6-8.1-9.8-20.9-9.6-32.1c-15.2,9.6-25,25.8-40.7,34.8  c-9.9,6-22.5,10.5-33.8,5.5c-10.9,6.1-20.7,14.1-31.7,20.1c-6.8,4.7-15.5,2.1-23.2,2.7c-7.4-2.5-10.3-11.1-11.6-18.1  c-4.1,3.1-9,6.6-14.5,5.6c-5.3-0.7-9.1-5.5-9.7-10.7c-9.8-3.3-9.6-15.6-4.1-22.6c8.5-12.2,21-21.7,35-26.9  c5.1-1.9,10.9-2.1,16.1-0.4c2-2.9,3.8-5.9,5.6-8.9c-6.4-8.8-14-17.7-24.6-21.3c-16.8-5.2-34.9,1.2-51.6-4.5  c-8.1-2.2-14.5-7.9-20.4-13.6c-7.1,5.8-15.6,9.5-22.6,15.4c5.6,15.4-4.2,32.5-19.3,37.5c0.4,9.5-5.1,19-13.9,22.9  c-10.5,4.8-22.4,2.9-33.4,1.5c-3.4-0.8-7.3-0.4-10,2c-10.8,8.5-19.5,20-32.4,25.6c-11,6.3-26.9,6.8-36.1-3c-4.7-4.3-6.3-13.4,0.1-17  c10.4-6.4,22.9-8.2,33.4-14.5c8.7-5.7,18.8-12.1,21.8-22.8c-10.8-2.3-21.9-0.8-32.4,2.1c-18.9,4.4-41.5,1.6-54.9-13.8  c-5.9-6.4-10-16.5-5.8-24.9c4.8-7.9,15.6-8.9,23.8-6.3c24.2,6.9,50,13.7,75.1,7.1c-12.9-15-32.9-22.1-44.4-38.5  c-7.1-10.2-10.3-24.2-5.1-35.9c1.8-5.1,6.8-8.5,12-9.1c8.2,0.7,14,7.4,18.2,13.9c9.2,14.2,21.2,26.5,34.3,37.2  c-17.9-21.6-34.2-44.6-47-69.6c-7.1-14.4-14.7-28.5-21.4-43.1c-14.2,2.8-28.8,4.7-43.3,3.3c-33.7-5-64.5,12.8-94.8,24.6  c-13.1,5-28.2,10.4-42,4.7c-9.6,7.7-21.2,13-33.5,14.4c-3.8,12.1-18,19.3-29.9,15c-4.3-1.5-6.7-5.4-9.5-8.6  c-4.6-2.7-10.7-5-12.1-10.7c0-7.1-2-15.6,3.7-21.2c-4-6.3-3.7-15,1.3-20.7c6.4-8.1,19.5-9.3,26.9-1.8c17.3-17.5,42.5-27.1,67.1-25.2  c8.5,0.9,18.5,3.1,22.9,11.3c8.1-9.6,15.5-19.9,20.7-31.3c-1.2-3.1-2.3-6.3-3.4-9.4c-8.9,7.8-12.9,22.6-26.3,24.1  c-11.8,0.8-17.9-11.8-18.6-21.9c-1.6-24.1-3.5-49.3-15.2-70.9c-7.9,2.7-17.1-0.6-21.4-7.7c-7.1-12.3,0-29.4,13.9-32.8  c-3.7-19.9,23.3-34.7,38.2-21.6c4.7-2.3,10.2-4.1,15.5-2.2c6.4,1.7,10.7,7,14.9,11.7c1.6-3.7-2-6.1-4.4-8.2  c-7.4-5.7-15.8-10.7-25.2-11.8c-18-4.4-36.8-1.6-54.7-6.1c-12.5-1.9-24-7.7-34-15.1c-2.3-1.8-4.7-3.8-6-6.5  c13.3,1.8,26.6,5,40.1,4.4c30.5-1.5,61.6-6.6,91.8,0.3c13.8,3.4,25.6,12.6,34.4,23.5c13.3,15.4,19.6,35.3,31,52  c3,5,8.7,7.2,12.2,11.8c8.1,8.7,11.9,20.2,14.5,31.5c8.7,7.1,21,2,28.5-4.5c-10.8-0.9-20.5-8.5-24.6-18.5c-5-11-3.4-23.4-5-35.1  c-1.6-16.2-11.3-31.1-24.9-39.8c-4.4-2.8-9.5-4.5-14-7.1c16.4-9,36-9.2,54-6.2c19.7,2.5,37.7,11.3,54.9,20.7  c4.6-3.5,9.7-6.3,14.4-9.8c-3.1-7.2-6.1-14.7-11.2-20.8c-9.1-7.4-20.4-12.9-26.9-23.1c-1.1-2.1-2.7-5.3-0.5-7.2  c3.1-1.8,6.5,0.3,9.5,1.3c11.2,5.3,23.5,7.8,35.9,7.8c8.2,0.6,17.3,0,24.4,4.9c8.7,6.5,14.4,15.8,19.5,25.3  c15.9-0.9,32.1-0.6,47.6,3c-14.5,1.7-29.4,1-43.8,4.4c1.7,3.1,3,7.3,7.1,7.6c13.6,3.4,25,13.3,31.4,25.7c1.1,3.3,5.3,3.2,7.2,5.8  c2.7,3.4,4.4,7.6,5.2,11.9c-2.5-1.5-4.6-3.5-6.9-5.4c1.3,6.4,2.8,12.8,3.9,19.2c21.2-2.4,42.6-4.4,64-3.4c3.4-6.6,3.6-15.1,7.7-20.8  c0.4,7.4-3.2,14.1-4.8,21.1c10.9,0.3,21.7,1.7,32.5,2.1c1.1-1.7,2.3-3.4,3.5-5c-0.2,1.9-0.6,3.8-1.1,5.6  c30.4,3.1,60.5,8.4,90.3,15.1c0.6-5,1.1-10.5-1.6-15c-4.4-7.6-13.8-10.1-18.6-17.4c-2.8-3.5-3.1-8.9-0.1-12.4  c7.6-10.4,23.3-11.4,33.9-5.4c7.6,4.1,11.6,12.4,13.8,20.5C673.8,105.6,684.5,70,700,39"/>
</svg>